<?xml version="1.0" standalone="no"?>
<!DOCTYPE svg PUBLIC "-//W3C//DTD SVG 20010904//EN"
 "http://www.w3.org/TR/2001/REC-SVG-20010904/DTD/svg10.dtd">
<svg version="1.0" xmlns="http://www.w3.org/2000/svg"
 width="927.000000pt" height="656.000000pt" viewBox="0 0 927.000000 656.000000"
 preserveAspectRatio="xMidYMid meet">

<g transform="translate(0.000000,656.000000) scale(0.100000,-0.100000)"
fill="#000000" stroke="none">
<path d="M4473 5313 c9 -2 23 -2 30 0 6 3 -1 5 -18 5 -16 0 -22 -2 -12 -5z"/>
<path d="M4408 5303 c6 -2 18 -2 25 0 6 3 1 5 -13 5 -14 0 -19 -2 -12 -5z"/>
<path d="M4468 5293 c12 -2 30 -2 40 0 9 3 -1 5 -23 4 -22 0 -30 -2 -17 -4z"/>
<path d="M4710 5290 c-9 -6 -10 -10 -3 -10 6 0 15 5 18 10 8 12 4 12 -15 0z"/>
<path d="M4244 5245 c-17 -13 -16 -14 14 -4 18 6 36 9 39 5 8 -7 -1 -17 -19
-20 -7 -2 -24 -8 -38 -13 -22 -9 -18 -11 25 -9 43 1 51 4 51 21 0 36 -37 46
-72 20z"/>
<path d="M4805 5230 c3 -5 10 -10 16 -10 5 0 9 5 9 10 0 6 -7 10 -16 10 -8 0
-12 -4 -9 -10z"/>
<path d="M4179 5213 c-13 -15 -12 -15 11 -3 34 17 36 20 18 20 -9 0 -22 -7
-29 -17z"/>
<path d="M4868 5203 c7 -3 16 -2 19 1 4 3 -2 6 -13 5 -11 0 -14 -3 -6 -6z"/>
<path d="M4120 5175 c7 -9 15 -13 17 -11 7 7 -7 26 -19 26 -6 0 -6 -6 2 -15z"/>
<path d="M4142 5144 c-7 -8 -8 -14 -3 -14 10 0 25 19 20 25 -2 1 -10 -3 -17
-11z"/>
<path d="M5000 5141 c0 -12 5 -21 10 -21 6 0 10 6 10 14 0 8 -4 18 -10 21 -5
3 -10 -3 -10 -14z"/>
<path d="M4045 5140 c-3 -5 -2 -10 4 -10 5 0 13 5 16 10 3 6 2 10 -4 10 -5 0
-13 -4 -16 -10z"/>
<path d="M5135 5140 c3 -5 11 -10 16 -10 6 0 7 5 4 10 -3 6 -11 10 -16 10 -6
0 -7 -4 -4 -10z"/>
<path d="M5050 5129 c0 -5 5 -7 10 -4 6 3 10 8 10 11 0 2 -4 4 -10 4 -5 0 -10
-5 -10 -11z"/>
<path d="M5178 5123 c7 -3 16 -2 19 1 4 3 -2 6 -13 5 -11 0 -14 -3 -6 -6z"/>
<path d="M4653 5113 c9 -2 23 -2 30 0 6 3 -1 5 -18 5 -16 0 -22 -2 -12 -5z"/>
<path d="M4778 5113 c7 -3 16 -2 19 1 4 3 -2 6 -13 5 -11 0 -14 -3 -6 -6z"/>
<path d="M4448 5103 c12 -2 32 -2 45 0 12 2 2 4 -23 4 -25 0 -35 -2 -22 -4z"/>
<path d="M5214 5096 c11 -9 24 -16 30 -16 12 0 7 5 -24 19 -24 11 -24 11 -6
-3z"/>
<path d="M4533 5093 c9 -2 23 -2 30 0 6 3 -1 5 -18 5 -16 0 -22 -2 -12 -5z"/>
<path d="M4603 5093 c15 -2 39 -2 55 0 15 2 2 4 -28 4 -30 0 -43 -2 -27 -4z"/>
<path d="M4703 5083 c19 -5 24 -23 5 -23 -6 0 -9 -2 -6 -5 3 -3 13 -3 22 1 13
5 14 9 5 20 -6 8 -19 13 -28 13 -13 -1 -13 -2 2 -6z"/>
<path d="M3333 5073 c9 -2 25 -2 35 0 9 3 1 5 -18 5 -19 0 -27 -2 -17 -5z"/>
<path d="M3965 5070 c3 -5 11 -10 16 -10 6 0 7 5 4 10 -3 6 -11 10 -16 10 -6
0 -7 -4 -4 -10z"/>
<path d="M5260 5070 c-8 -5 -22 -7 -32 -4 -9 2 -19 1 -21 -3 -3 -5 2 -9 11
-10 9 -1 25 -3 36 -5 12 -2 20 4 21 15 4 20 4 19 -15 7z"/>
<path d="M3428 5063 c7 -3 16 -2 19 1 4 3 -2 6 -13 5 -11 0 -14 -3 -6 -6z"/>
<path d="M3868 5053 c7 -3 16 -2 19 1 4 3 -2 6 -13 5 -11 0 -14 -3 -6 -6z"/>
<path d="M3916 5052 c-2 -4 4 -8 14 -8 10 0 16 4 14 8 -3 4 -9 8 -14 8 -5 0
-11 -4 -14 -8z"/>
<path d="M4448 5053 c6 -2 18 -2 25 0 6 3 1 5 -13 5 -14 0 -19 -2 -12 -5z"/>
<path d="M3368 5043 c12 -2 30 -2 40 0 9 3 -1 5 -23 4 -22 0 -30 -2 -17 -4z"/>
<path d="M4895 5040 c-3 -5 -5 -10 -3 -10 2 0 17 -4 35 -9 23 -7 33 -6 36 3 4
9 -3 12 -21 9 -21 -4 -24 -2 -12 6 12 9 11 11 -7 11 -12 0 -25 -4 -28 -10z"/>
<path d="M3448 5033 c7 -3 16 -2 19 1 4 3 -2 6 -13 5 -11 0 -14 -3 -6 -6z"/>
<path d="M5000 5030 c-18 -12 -2 -12 25 0 13 6 15 9 5 9 -8 0 -22 -4 -30 -9z"/>
<path d="M3608 5023 c7 -3 16 -2 19 1 4 3 -2 6 -13 5 -11 0 -14 -3 -6 -6z"/>
<path d="M4160 5020 c0 -5 6 -11 13 -13 9 -4 8 -8 -3 -16 -8 -5 -11 -13 -7
-17 4 -4 15 1 26 12 18 19 17 20 -6 31 -12 6 -23 7 -23 3z"/>
<path d="M4270 5026 c0 -2 7 -6 15 -10 8 -3 15 -1 15 4 0 6 -7 10 -15 10 -8 0
-15 -2 -15 -4z"/>
<path d="M3185 5010 c3 -5 8 -10 11 -10 2 0 4 5 4 10 0 6 -5 10 -11 10 -5 0
-7 -4 -4 -10z"/>
<path d="M3480 5011 c0 -6 5 -13 10 -16 6 -3 10 1 10 9 0 9 -4 16 -10 16 -5 0
-10 -4 -10 -9z"/>
<path d="M5006 5005 c-11 -8 -15 -15 -9 -15 19 0 43 12 43 21 0 13 -12 11 -34
-6z"/>
<path d="M5366 5011 c-3 -5 1 -11 9 -14 9 -4 12 -1 8 9 -6 16 -10 17 -17 5z"/>
<path d="M3157 4999 c7 -7 15 -10 18 -7 3 3 -2 9 -12 12 -14 6 -15 5 -6 -5z"/>
<path d="M5408 5003 c10 -4 10 -8 1 -19 -7 -8 -7 -14 -1 -14 5 0 15 6 21 14 9
11 8 15 -5 20 -8 3 -19 6 -22 5 -4 0 -1 -3 6 -6z"/>
<path d="M3670 4990 c11 -7 3 -10 -30 -11 -32 -2 -37 -3 -16 -6 15 -3 40 -2
54 2 21 5 23 8 11 16 -7 5 -18 9 -24 9 -5 0 -3 -5 5 -10z"/>
<path d="M4958 4983 c7 -3 16 -2 19 1 4 3 -2 6 -13 5 -11 0 -14 -3 -6 -6z"/>
<path d="M5367 4969 c7 -7 15 -10 18 -7 3 3 -2 9 -12 12 -14 6 -15 5 -6 -5z"/>
<path d="M5071 4949 c8 -4 7 -8 -2 -11 -8 -3 0 -5 18 -4 17 1 29 4 27 8 -2 3
1 8 7 10 7 2 -4 4 -24 4 -20 0 -32 -3 -26 -7z"/>
<path d="M3080 4940 c-8 -5 -12 -12 -9 -15 4 -3 12 1 19 10 14 17 11 19 -10 5z"/>
<path d="M3105 4920 c-3 -5 -1 -10 4 -10 6 0 11 5 11 10 0 6 -2 10 -4 10 -3 0
-8 -4 -11 -10z"/>
<path d="M3038 4913 c0 -5 -2 -14 -2 -22 -1 -8 -7 -16 -15 -19 -9 -3 -11 0 -6
8 6 9 3 9 -13 1 -14 -7 -19 -17 -15 -28 5 -12 2 -15 -10 -10 -9 3 -19 3 -21
-2 -3 -4 14 -7 37 -7 33 1 42 5 42 19 0 10 6 22 14 26 11 7 11 9 0 14 -12 4
-11 7 1 16 10 7 11 11 3 11 -7 0 -14 -3 -15 -7z m-18 -53 c8 -5 11 -12 7 -16
-4 -4 -15 0 -24 9 -18 18 -8 23 17 7z"/>
<path d="M5530 4913 c0 -13 32 -35 40 -27 5 5 -1 14 -16 21 -13 6 -24 9 -24 6z"/>
<path d="M5145 4900 c3 -5 11 -10 16 -10 6 0 7 5 4 10 -3 6 -11 10 -16 10 -6
0 -7 -4 -4 -10z"/>
<path d="M5593 4895 c0 -8 4 -15 9 -15 4 0 8 4 8 9 0 6 -4 12 -8 15 -5 3 -9
-1 -9 -9z"/>
<path d="M3098 4883 c7 -3 16 -2 19 1 4 3 -2 6 -13 5 -11 0 -14 -3 -6 -6z"/>
<path d="M3300 4871 c0 -10 19 -25 25 -20 1 2 -3 10 -11 17 -8 7 -14 8 -14 3z"/>
<path d="M3353 4873 c4 -3 2 -12 -4 -20 -9 -9 -8 -13 0 -13 6 0 11 5 11 10 0
6 8 10 18 10 14 0 15 2 2 10 -17 11 -37 13 -27 3z"/>
<path d="M3505 4870 c-3 -5 -1 -10 4 -10 6 0 11 5 11 10 0 6 -2 10 -4 10 -3 0
-8 -4 -11 -10z"/>
<path d="M3848 4873 c6 -2 18 -2 25 0 6 3 1 5 -13 5 -14 0 -19 -2 -12 -5z"/>
<path d="M5208 4860 c18 -11 38 -20 45 -20 6 0 -5 9 -26 20 -48 26 -62 26 -19
0z"/>
<path d="M3458 4863 c7 -3 16 -2 19 1 4 3 -2 6 -13 5 -11 0 -14 -3 -6 -6z"/>
<path d="M3937 4863 c-4 -3 -24 -9 -44 -13 -37 -8 -37 -8 -7 -9 18 0 45 6 60
14 16 8 22 15 13 15 -9 0 -19 -3 -22 -7z"/>
<path d="M3488 4843 c7 -3 16 -2 19 1 4 3 -2 6 -13 5 -11 0 -14 -3 -6 -6z"/>
<path d="M5671 4845 c-1 -6 4 -16 11 -23 9 -9 9 -12 -2 -12 -7 0 -11 -3 -8 -6
4 -3 20 2 37 11 33 16 42 29 14 18 -11 -5 -14 -3 -8 6 6 10 3 11 -13 2 -15 -8
-22 -8 -25 2 -3 6 -6 7 -6 2z"/>
<path d="M5310 4823 c-13 -15 -12 -16 4 -10 10 4 22 7 27 7 5 0 9 5 9 10 0 15
-23 11 -40 -7z"/>
<path d="M5620 4830 c0 -5 5 -10 10 -10 6 0 10 5 10 10 0 6 -4 10 -10 10 -5 0
-10 -4 -10 -10z"/>
<path d="M3330 4820 c-18 -12 -2 -12 25 0 13 6 15 9 5 9 -8 0 -22 -4 -30 -9z"/>
<path d="M3920 4819 c0 -5 5 -7 10 -4 6 3 10 8 10 11 0 2 -4 4 -10 4 -5 0 -10
-5 -10 -11z"/>
<path d="M2934 4813 c8 -9 50 -12 63 -5 8 5 -3 8 -27 8 -22 0 -38 -1 -36 -3z"/>
<path d="M3483 4813 c9 -2 23 -2 30 0 6 3 -1 5 -18 5 -16 0 -22 -2 -12 -5z"/>
<path d="M3276 4793 c-6 -14 -5 -15 5 -6 7 7 10 15 7 18 -3 3 -9 -2 -12 -12z"/>
<path d="M5355 4800 c6 -9 1 -10 -16 -5 l-24 7 25 -18 c14 -10 29 -19 35 -20
5 0 16 -2 23 -2 7 -1 10 -7 6 -14 -5 -7 -3 -8 6 -3 7 4 16 2 20 -5 5 -8 7 -1
7 17 -1 25 -5 29 -28 28 -14 -1 -31 -5 -39 -10 -10 -6 -12 -4 -7 8 3 9 1 19
-5 23 -7 5 -8 2 -3 -6z m65 -30 c8 -5 11 -10 5 -10 -5 0 -17 5 -25 10 -8 5
-10 10 -5 10 6 0 17 -5 25 -10z"/>
<path d="M2885 4778 l-20 -21 23 12 c12 6 22 16 22 21 0 13 -2 12 -25 -12z"/>
<path d="M3235 4790 c-3 -6 1 -7 9 -4 18 7 21 14 7 14 -6 0 -13 -4 -16 -10z"/>
<path d="M3625 4790 c3 -5 18 -10 32 -10 32 0 28 5 -10 14 -19 4 -26 3 -22 -4z"/>
<path d="M3728 4793 c6 -2 18 -2 25 0 6 3 1 5 -13 5 -14 0 -19 -2 -12 -5z"/>
<path d="M5790 4790 c0 -6 7 -10 15 -10 8 0 15 2 15 4 0 2 -7 6 -15 10 -8 3
-15 1 -15 -4z"/>
<path d="M2904 4756 c-20 -11 -22 -36 -3 -36 6 0 7 5 4 10 -3 6 4 14 16 18 12
5 18 11 13 14 -5 3 -18 0 -30 -6z"/>
<path d="M3200 4766 c0 -2 7 -7 16 -10 8 -3 12 -2 9 4 -6 10 -25 14 -25 6z"/>
<path d="M5820 4759 c0 -6 7 -8 16 -5 8 3 12 2 9 -4 -3 -6 -14 -10 -23 -11
-11 0 -12 -2 -4 -6 7 -3 19 1 27 7 8 7 23 9 32 6 15 -5 15 -4 -1 9 -23 18 -56
20 -56 4z"/>
<path d="M2850 4740 c0 -5 5 -10 11 -10 5 0 7 5 4 10 -3 6 -8 10 -11 10 -2 0
-4 -4 -4 -10z"/>
<path d="M5768 4743 c7 -3 16 -2 19 1 4 3 -2 6 -13 5 -11 0 -14 -3 -6 -6z"/>
<path d="M2830 4720 c0 -5 5 -10 11 -10 5 0 7 5 4 10 -3 6 -8 10 -11 10 -2 0
-4 -4 -4 -10z"/>
<path d="M5768 4723 c6 -2 18 -2 25 0 6 3 1 5 -13 5 -14 0 -19 -2 -12 -5z"/>
<path d="M3096 4711 c-4 -7 -5 -15 -2 -18 9 -9 19 4 14 18 -4 11 -6 11 -12 0z"/>
<path d="M3144 4698 l-19 -23 25 20 c14 11 27 21 29 22 2 2 0 3 -6 3 -5 0 -18
-10 -29 -22z"/>
<path d="M5525 4710 c-3 -5 -2 -10 4 -10 5 0 13 5 16 10 3 6 2 10 -4 10 -5 0
-13 -4 -16 -10z"/>
<path d="M2853 4696 c-26 -12 -30 -26 -9 -26 13 0 43 28 35 33 -2 2 -14 -2
-26 -7z"/>
<path d="M2772 4671 l-33 -29 36 2 c39 4 52 11 36 21 -6 3 -11 1 -11 -4 0 -6
-5 -11 -11 -11 -7 0 -5 10 5 25 21 32 18 31 -22 -4z"/>
<path d="M5560 4690 c0 -5 5 -10 10 -10 6 0 10 5 10 10 0 6 -4 10 -10 10 -5 0
-10 -4 -10 -10z"/>
<path d="M5920 4680 c0 -5 5 -10 11 -10 5 0 7 5 4 10 -3 6 -8 10 -11 10 -2 0
-4 -4 -4 -10z"/>
<path d="M3050 4670 c0 -5 5 -10 10 -10 6 0 10 5 10 10 0 6 -4 10 -10 10 -5 0
-10 -4 -10 -10z"/>
<path d="M3090 4660 c-8 -5 -12 -12 -9 -15 4 -3 12 1 19 10 14 17 11 19 -10 5z"/>
<path d="M5560 4660 c0 -5 5 -10 10 -10 6 0 10 5 10 10 0 6 -4 10 -10 10 -5 0
-10 -4 -10 -10z"/>
<path d="M6024 4655 c11 -8 24 -15 30 -15 5 0 1 7 -10 15 -10 8 -23 14 -29 14
-5 0 -1 -6 9 -14z"/>
<path d="M2699 4603 c-13 -16 -12 -17 4 -4 16 13 21 21 13 21 -2 0 -10 -8 -17
-17z"/>
<path d="M2995 4610 c-3 -5 -1 -10 4 -10 6 0 11 5 11 10 0 6 -2 10 -4 10 -3 0
-8 -4 -11 -10z"/>
<path d="M5743 4598 c1 -8 -7 -12 -21 -11 -13 2 -21 -1 -17 -7 3 -6 17 -10 31
-10 17 0 24 5 24 20 0 11 -4 20 -10 20 -5 0 -9 -6 -7 -12z"/>
<path d="M2665 4580 c-3 -5 -1 -10 4 -10 6 0 11 5 11 10 0 6 -2 10 -4 10 -3 0
-8 -4 -11 -10z"/>
<path d="M2970 4580 c0 -5 5 -10 10 -10 6 0 10 5 10 10 0 6 -4 10 -10 10 -5 0
-10 -4 -10 -10z"/>
<path d="M3010 4576 c0 -8 -6 -17 -12 -19 -10 -4 -10 -6 -1 -6 7 -1 17 8 23
19 7 14 7 20 0 20 -5 0 -10 -6 -10 -14z"/>
<path d="M3630 4576 c-114 -26 -245 -86 -361 -165 -26 -17 -49 -31 -52 -31 -3
0 -42 -22 -87 -50 -45 -27 -83 -50 -85 -50 -2 0 -41 -22 -87 -48 -264 -152
-571 -264 -863 -313 -143 -24 -296 -28 -840 -19 -159 2 -456 3 -658 2 l-368
-2 3 -127 3 -128 565 -8 c722 -10 1181 -4 1315 17 305 47 588 138 830 266 87
47 396 224 495 285 193 119 358 149 536 101 82 -23 396 -141 488 -184 100 -47
167 -68 262 -81 94 -13 239 1 344 34 169 53 247 66 349 60 148 -9 266 -57 603
-241 282 -155 542 -250 783 -284 44 -6 91 -13 105 -16 38 -7 1959 -24 2008
-18 l42 6 0 128 0 128 -497 7 c-274 4 -672 5 -886 2 -309 -5 -418 -4 -540 9
-350 34 -680 144 -1014 335 -164 94 -221 122 -313 153 -241 80 -445 76 -725
-14 -153 -49 -254 -40 -445 38 -199 81 -462 181 -520 197 -84 23 -312 29 -390
11z"/>
<path d="M6076 4578 c3 -5 10 -6 15 -3 13 9 11 12 -6 12 -8 0 -12 -4 -9 -9z"/>
<path d="M6125 4580 c-3 -5 -1 -10 4 -10 6 0 11 5 11 10 0 6 -2 10 -4 10 -3 0
-8 -4 -11 -10z"/>
<path d="M6038 4563 c7 -3 16 -2 19 1 4 3 -2 6 -13 5 -11 0 -14 -3 -6 -6z"/>
<path d="M5748 4553 c7 -3 16 -2 19 1 4 3 -2 6 -13 5 -11 0 -14 -3 -6 -6z"/>
<path d="M6160 4540 c0 -5 11 -10 25 -10 14 0 25 5 25 10 0 6 -11 10 -25 10
-14 0 -25 -4 -25 -10z"/>
<path d="M2955 4530 c-3 -5 -2 -10 4 -10 5 0 13 5 16 10 3 6 2 10 -4 10 -5 0
-13 -4 -16 -10z"/>
<path d="M5870 4510 c0 -5 5 -10 10 -10 6 0 10 5 10 10 0 6 -4 10 -10 10 -5 0
-10 -4 -10 -10z"/>
<path d="M2915 4500 c-19 -8 -19 -9 3 -9 12 -1 22 4 22 9 0 6 -1 10 -2 9 -2 0
-12 -4 -23 -9z"/>
<path d="M2560 4486 c4 -4 16 -4 26 2 16 9 14 10 -8 9 -15 -1 -23 -6 -18 -11z"/>
<path d="M2620 4490 c-13 -8 -12 -10 3 -10 9 0 17 5 17 10 0 12 -1 12 -20 0z"/>
<path d="M6315 4490 c-3 -6 1 -7 9 -4 18 7 21 14 7 14 -6 0 -13 -4 -16 -10z"/>
<path d="M6258 4483 c7 -3 16 -2 19 1 4 3 -2 6 -13 5 -11 0 -14 -3 -6 -6z"/>
<path d="M2861 4469 c7 -4 17 -5 23 -2 6 4 7 -1 2 -12 -7 -18 -6 -18 14 0 11
10 20 19 20 19 0 1 -16 2 -36 2 -22 1 -31 -2 -23 -7z"/>
<path d="M2495 4460 c-3 -6 1 -7 9 -4 18 7 21 14 7 14 -6 0 -13 -4 -16 -10z"/>
<path d="M2818 4463 c7 -3 16 -2 19 1 4 3 -2 6 -13 5 -11 0 -14 -3 -6 -6z"/>
<path d="M6395 4450 c-8 -13 3 -30 18 -30 8 0 7 3 -2 9 -7 5 -10 14 -7 20 4 6
5 11 2 11 -3 0 -8 -4 -11 -10z"/>
<path d="M2530 4440 c0 -5 5 -10 10 -10 6 0 10 5 10 10 0 6 -4 10 -10 10 -5 0
-10 -4 -10 -10z"/>
<path d="M5940 4440 c0 -5 5 -10 10 -10 6 0 10 5 10 10 0 6 -4 10 -10 10 -5 0
-10 -4 -10 -10z"/>
<path d="M2495 4430 c3 -5 8 -10 11 -10 2 0 4 5 4 10 0 6 -5 10 -11 10 -5 0
-7 -4 -4 -10z"/>
<path d="M2820 4432 c0 -5 7 -13 16 -16 10 -4 14 -1 12 6 -5 15 -28 23 -28 10z"/>
<path d="M5985 4430 c-3 -5 -1 -10 4 -10 6 0 11 5 11 10 0 6 -2 10 -4 10 -3 0
-8 -4 -11 -10z"/>
<path d="M2420 4420 c-9 -6 -10 -10 -3 -10 6 0 15 5 18 10 8 12 4 12 -15 0z"/>
<path d="M2488 4403 c7 -3 16 -2 19 1 4 3 -2 6 -13 5 -11 0 -14 -3 -6 -6z"/>
<path d="M6508 4403 c7 -3 16 -2 19 1 4 3 -2 6 -13 5 -11 0 -14 -3 -6 -6z"/>
<path d="M2755 4378 c13 -10 27 -18 32 -18 4 0 1 5 -7 10 -12 8 -12 12 -2 18
8 6 3 9 -17 9 l-29 0 23 -19z"/>
<path d="M6095 4393 c11 -3 27 -10 35 -17 13 -10 13 -9 1 7 -7 9 -23 16 -35
16 -20 -1 -20 -2 -1 -6z"/>
<path d="M2313 4364 c0 -7 4 -11 8 -8 4 2 11 -1 15 -7 5 -8 -6 -9 -37 -5 -33
4 -37 3 -17 -3 14 -5 31 -12 36 -15 12 -7 44 22 37 34 -9 14 -42 18 -42 4z"/>
<path d="M2378 4373 c7 -3 16 -2 19 1 4 3 -2 6 -13 5 -11 0 -14 -3 -6 -6z"/>
<path d="M6090 4360 c35 -24 54 -31 30 -11 -14 11 -29 21 -35 21 -5 0 -3 -5 5
-10z"/>
<path d="M2375 4350 c-3 -5 1 -10 10 -10 9 0 13 5 10 10 -3 6 -8 10 -10 10 -2
0 -7 -4 -10 -10z"/>
<path d="M2268 4323 c7 -3 16 -2 19 1 4 3 -2 6 -13 5 -11 0 -14 -3 -6 -6z"/>
<path d="M2720 4320 c-9 -6 -10 -10 -3 -10 6 0 15 5 18 10 8 12 4 12 -15 0z"/>
<path d="M2588 4313 c6 -2 18 -2 25 0 6 3 1 5 -13 5 -14 0 -19 -2 -12 -5z"/>
<path d="M6240 4310 c-8 -5 -10 -10 -5 -10 6 0 17 5 25 10 8 5 11 10 5 10 -5
0 -17 -5 -25 -10z"/>
<path d="M6290 4310 c-8 -5 -10 -10 -5 -10 6 0 17 5 25 10 8 5 11 10 5 10 -5
0 -17 -5 -25 -10z"/>
<path d="M2625 4300 c-3 -5 1 -10 9 -10 9 0 16 5 16 10 0 6 -4 10 -9 10 -6 0
-13 -4 -16 -10z"/>
<path d="M2680 4299 c0 -5 5 -7 10 -4 6 3 10 8 10 11 0 2 -4 4 -10 4 -5 0 -10
-5 -10 -11z"/>
<path d="M2130 4290 c-8 -5 -24 -7 -35 -4 -13 4 -17 3 -10 -4 6 -5 26 -12 45
-16 25 -4 31 -3 20 4 -13 9 -13 11 0 20 8 5 11 10 5 10 -5 0 -17 -5 -25 -10z"/>
<path d="M2578 4278 c9 -9 15 -9 24 0 9 9 7 12 -12 12 -19 0 -21 -3 -12 -12z"/>
<path d="M6730 4275 c-14 -16 -10 -18 14 -9 9 3 16 10 16 15 0 14 -16 11 -30
-6z"/>
<path d="M6845 4279 c-16 -8 -15 -8 8 -4 17 4 26 2 23 -4 -4 -5 -1 -13 5 -17
8 -4 9 -3 5 4 -4 7 -1 12 6 12 9 0 9 3 -2 10 -18 11 -19 11 -45 -1z"/>
<path d="M1058 4273 c12 -2 32 -2 45 0 12 2 2 4 -23 4 -25 0 -35 -2 -22 -4z"/>
<path d="M1928 4273 c7 -3 16 -2 19 1 4 3 -2 6 -13 5 -11 0 -14 -3 -6 -6z"/>
<path d="M1989 4262 c11 -8 9 -11 -10 -15 -22 -5 -22 -5 -1 -4 25 2 32 19 10
25 -10 3 -9 1 1 -6z"/>
<path d="M2028 4263 c6 -2 18 -2 25 0 6 3 1 5 -13 5 -14 0 -19 -2 -12 -5z"/>
<path d="M2560 4260 c0 -5 5 -10 10 -10 6 0 10 5 10 10 0 6 -4 10 -10 10 -5 0
-10 -4 -10 -10z"/>
<path d="M6783 4263 c4 -3 22 -7 39 -9 26 -2 29 -1 13 6 -24 10 -61 13 -52 3z"/>
<path d="M6928 4263 c7 -3 16 -2 19 1 4 3 -2 6 -13 5 -11 0 -14 -3 -6 -6z"/>
<path d="M277 4253 c24 -2 62 -2 86 0 23 2 4 4 -43 4 -47 0 -66 -2 -43 -4z"/>
<path d="M918 4253 c23 -2 61 -2 85 0 23 2 4 4 -43 4 -47 0 -66 -2 -42 -4z"/>
<path d="M1138 4253 c12 -2 32 -2 45 0 12 2 2 4 -23 4 -25 0 -35 -2 -22 -4z"/>
<path d="M1538 4253 c12 -2 32 -2 45 0 12 2 2 4 -23 4 -25 0 -35 -2 -22 -4z"/>
<path d="M1768 4253 c7 -3 16 -2 19 1 4 3 -2 6 -13 5 -11 0 -14 -3 -6 -6z"/>
<path d="M1893 4253 c9 -2 25 -2 35 0 9 3 1 5 -18 5 -19 0 -27 -2 -17 -5z"/>
<path d="M2083 4253 c9 -2 23 -2 30 0 6 3 -1 5 -18 5 -16 0 -22 -2 -12 -5z"/>
<path d="M6950 4250 c-8 -5 -10 -10 -5 -10 6 0 17 5 25 10 8 5 11 10 5 10 -5
0 -17 -5 -25 -10z"/>
<path d="M2028 4243 c6 -2 18 -2 25 0 6 3 1 5 -13 5 -14 0 -19 -2 -12 -5z"/>
<path d="M2580 4235 c-14 -8 -20 -14 -14 -15 5 0 19 7 30 15 24 18 16 19 -16
0z"/>
<path d="M6748 4243 c6 -2 18 -2 25 0 6 3 1 5 -13 5 -14 0 -19 -2 -12 -5z"/>
<path d="M7558 4223 c23 -2 61 -2 85 0 23 2 4 4 -43 4 -47 0 -66 -2 -42 -4z"/>
<path d="M8568 4223 c7 -3 16 -2 19 1 4 3 -2 6 -13 5 -11 0 -14 -3 -6 -6z"/>
<path d="M2515 4210 c-3 -5 -2 -10 4 -10 5 0 13 5 16 10 3 6 2 10 -4 10 -5 0
-13 -4 -16 -10z"/>
<path d="M7040 4210 c0 -5 7 -10 15 -10 8 0 15 5 15 10 0 6 -7 10 -15 10 -8 0
-15 -4 -15 -10z"/>
<path d="M8908 4213 c6 -2 18 -2 25 0 6 3 1 5 -13 5 -14 0 -19 -2 -12 -5z"/>
<path d="M8685 4199 c106 -6 104 -6 -40 -4 -91 1 -134 -2 -110 -6 52 -10 192
-11 291 -2 l79 8 -60 6 c-33 4 -107 6 -165 6 l-105 -1 110 -7z"/>
<path d="M6430 4189 c-12 -8 -10 -9 9 -4 15 5 27 2 33 -6 8 -11 9 -11 5 1 -5
19 -27 23 -47 9z"/>
<path d="M7683 4193 c15 -2 39 -2 55 0 15 2 2 4 -28 4 -30 0 -43 -2 -27 -4z"/>
<path d="M7683 4173 c93 -2 241 -2 330 0 89 1 14 3 -168 3 -181 0 -254 -2
-162 -3z"/>
<path d="M8265 4174 c69 -7 232 -8 222 -2 -7 4 -66 7 -132 6 -66 -1 -106 -3
-90 -4z"/>
<path d="M8908 4173 c7 -3 16 -2 19 1 4 3 -2 6 -13 5 -11 0 -14 -3 -6 -6z"/>
<path d="M7168 4163 c6 -2 18 -2 25 0 6 3 1 5 -13 5 -14 0 -19 -2 -12 -5z"/>
<path d="M2370 4150 c13 -8 12 -10 -4 -10 -11 0 -17 -2 -14 -5 3 -3 20 -2 38
2 29 5 31 7 15 14 -11 4 -27 8 -35 8 -13 1 -13 0 0 -9z"/>
<path d="M6610 4156 c0 -2 7 -7 16 -10 8 -3 12 -2 9 4 -6 10 -25 14 -25 6z"/>
<path d="M6578 4143 c7 -3 16 -2 19 1 4 3 -2 6 -13 5 -11 0 -14 -3 -6 -6z"/>
<path d="M2320 4126 c0 -2 7 -7 16 -10 8 -3 12 -2 9 4 -6 10 -25 14 -25 6z"/>
<path d="M6590 4120 c-8 -5 -10 -10 -5 -10 6 0 17 5 25 10 8 5 11 10 5 10 -5
0 -17 -5 -25 -10z"/>
<path d="M2278 4103 c7 -3 16 -2 19 1 4 3 -2 6 -13 5 -11 0 -14 -3 -6 -6z"/>
<path d="M2230 4080 c-8 -5 -10 -10 -5 -10 6 0 17 5 25 10 8 5 11 10 5 10 -5
0 -17 -5 -25 -10z"/>
<path d="M1245 4070 c28 -5 66 -8 85 -8 28 1 25 2 -15 8 -27 5 -66 8 -85 8
-28 -1 -25 -2 15 -8z"/>
<path d="M1915 4070 c-3 -6 1 -7 9 -4 18 7 21 14 7 14 -6 0 -13 -4 -16 -10z"/>
<path d="M6785 4070 c3 -5 14 -10 23 -10 15 0 15 2 2 10 -20 13 -33 13 -25 0z"/>
<path d="M6848 4073 c7 -3 16 -2 19 1 4 3 -2 6 -13 5 -11 0 -14 -3 -6 -6z"/>
<path d="M498 4063 c12 -2 32 -2 45 0 12 2 2 4 -23 4 -25 0 -35 -2 -22 -4z"/>
<path d="M1458 4063 c12 -2 32 -2 45 0 12 2 2 4 -23 4 -25 0 -35 -2 -22 -4z"/>
<path d="M1688 4063 c6 -2 18 -2 25 0 6 3 1 5 -13 5 -14 0 -19 -2 -12 -5z"/>
<path d="M1818 4063 c7 -3 16 -2 19 1 4 3 -2 6 -13 5 -11 0 -14 -3 -6 -6z"/>
<path d="M1997 4059 c7 -7 15 -10 18 -7 3 3 -2 9 -12 12 -14 6 -15 5 -6 -5z"/>
<path d="M2048 4063 c6 -2 18 -2 25 0 6 3 1 5 -13 5 -14 0 -19 -2 -12 -5z"/>
<path d="M6865 4061 c-17 -7 -16 -9 9 -15 16 -4 31 -5 34 -1 3 3 -2 5 -12 5
-9 0 -14 5 -11 10 7 11 7 11 -20 1z"/>
<path d="M898 4053 c12 -2 32 -2 45 0 12 2 2 4 -23 4 -25 0 -35 -2 -22 -4z"/>
<path d="M6938 4053 c7 -3 16 -2 19 1 4 3 -2 6 -13 5 -11 0 -14 -3 -6 -6z"/>
<path d="M328 4043 c46 -2 118 -2 160 0 42 1 5 3 -83 3 -88 0 -123 -2 -77 -3z"/>
<path d="M738 4043 c12 -2 32 -2 45 0 12 2 2 4 -23 4 -25 0 -35 -2 -22 -4z"/>
<path d="M1438 4043 c45 -2 119 -2 165 0 45 1 8 3 -83 3 -91 0 -128 -2 -82 -3z"/>
<path d="M1848 4043 c6 -2 18 -2 25 0 6 3 1 5 -13 5 -14 0 -19 -2 -12 -5z"/>
<path d="M2058 4043 c7 -3 16 -2 19 1 4 3 -2 6 -13 5 -11 0 -14 -3 -6 -6z"/>
<path d="M6798 4043 c7 -3 16 -2 19 1 4 3 -2 6 -13 5 -11 0 -14 -3 -6 -6z"/>
<path d="M7015 4030 c3 -5 10 -10 16 -10 5 0 9 5 9 10 0 6 -7 10 -16 10 -8 0
-12 -4 -9 -10z"/>
<path d="M338 4023 c12 -2 32 -2 45 0 12 2 2 4 -23 4 -25 0 -35 -2 -22 -4z"/>
<path d="M658 4023 c12 -2 32 -2 45 0 12 2 2 4 -23 4 -25 0 -35 -2 -22 -4z"/>
<path d="M898 4023 c12 -2 32 -2 45 0 12 2 2 4 -23 4 -25 0 -35 -2 -22 -4z"/>
<path d="M1903 4023 c9 -2 23 -2 30 0 6 3 -1 5 -18 5 -16 0 -22 -2 -12 -5z"/>
<path d="M6928 4023 c6 -2 18 -2 25 0 6 3 1 5 -13 5 -14 0 -19 -2 -12 -5z"/>
<path d="M8045 3990 c28 -5 66 -8 85 -8 28 1 25 2 -15 8 -27 5 -66 8 -85 8
-28 -1 -25 -2 15 -8z"/>
<path d="M7133 3983 c9 -2 25 -2 35 0 9 3 1 5 -18 5 -19 0 -27 -2 -17 -5z"/>
<path d="M7558 3983 c23 -2 61 -2 85 0 23 2 4 4 -43 4 -47 0 -66 -2 -42 -4z"/>
<path d="M4375 3890 c-302 -30 -544 -74 -1020 -185 -165 -38 -522 -100 -745
-129 -459 -60 -731 -69 -1618 -56 -409 6 -745 10 -747 8 -2 -2 -5 -64 -6 -138
l-1 -135 253 -8 c357 -11 1235 -1 1519 18 664 44 1217 123 1712 245 288 71
507 100 818 107 457 10 793 -42 1325 -205 369 -114 682 -166 1280 -213 78 -6
513 -13 978 -16 l837 -5 0 141 0 141 -242 2 c-134 1 -529 1 -878 -1 -637 -3
-797 2 -1110 35 -153 16 -273 34 -405 60 -44 8 -91 18 -105 20 -67 13 -240 60
-370 100 -285 89 -583 159 -830 195 -155 23 -503 33 -645 19z"/>
<path d="M230 2993 l0 -131 413 -6 c226 -4 1037 -11 1802 -16 1648 -12 3554
-27 5175 -40 646 -5 1212 -10 1258 -10 l82 0 0 129 0 129 -242 6 c-134 3 -659
8 -1168 11 -509 3 -1501 10 -2205 15 -704 5 -1883 14 -2620 20 -737 5 -1600
12 -1917 16 l-578 7 0 -130z"/>
<path d="M230 2561 l0 -131 228 0 c125 0 749 -5 1387 -10 1219 -10 2978 -24
5145 -40 712 -5 1446 -10 1630 -12 l335 -3 0 130 0 130 -675 6 c-371 4 -1379
12 -2240 18 -861 7 -2076 16 -2700 21 -624 5 -1579 12 -2122 16 l-988 7 0
-132z"/>
<path d="M628 1920 c-189 -32 -346 -166 -409 -350 -32 -93 -32 -248 0 -342 42
-126 136 -240 241 -293 96 -48 149 -60 270 -60 122 0 187 14 265 58 l40 23 3
94 c3 89 2 93 -15 78 -10 -9 -44 -30 -75 -48 -240 -134 -509 -37 -573 205 -37
143 1 303 93 391 132 126 348 138 518 29 51 -33 52 -33 58 -12 3 12 6 48 6 80
l0 58 -82 39 c-114 54 -221 70 -340 50z"/>
<path d="M4515 1920 c-132 -19 -222 -115 -233 -247 -11 -140 48 -213 262 -320
121 -60 172 -103 186 -154 12 -45 0 -99 -29 -133 -61 -72 -245 -55 -290 26
-37 67 -33 66 -99 34 -56 -27 -59 -30 -52 -55 21 -76 78 -137 159 -175 37 -17
66 -21 151 -21 95 0 111 3 161 28 119 58 176 161 167 297 -9 123 -61 180 -247
273 -65 32 -124 70 -153 98 -41 39 -48 51 -48 85 0 42 28 97 57 112 66 34 155
20 207 -34 l34 -35 61 31 61 30 -19 38 c-24 46 -50 68 -115 97 -58 26 -148 36
-221 25z"/>
<path d="M6065 1613 c-228 -490 -325 -700 -325 -707 0 -3 37 -6 83 -6 l82 0
56 128 55 127 203 0 202 0 56 -127 56 -128 83 0 c46 0 84 1 84 3 0 2 -39 86
-86 188 -47 101 -125 270 -174 374 -48 105 -112 243 -143 307 -30 64 -58 126
-62 137 -3 12 -10 21 -14 21 -4 0 -74 -143 -156 -317z m165 -5 c0 -7 29 -80
65 -162 36 -83 65 -151 65 -153 0 -2 -63 -3 -140 -3 -77 0 -140 2 -140 4 0 1
24 57 54 122 30 65 60 138 67 162 11 39 29 57 29 30z"/>
<path d="M7705 1607 c-82 -177 -173 -371 -201 -432 -67 -142 -124 -267 -124
-271 0 -2 37 -4 83 -4 l83 0 18 43 c10 23 37 81 59 130 l40 87 200 -2 201 -3
55 -127 55 -128 83 0 c46 0 83 2 83 5 0 6 -34 79 -136 298 -46 98 -84 179 -84
181 0 2 -22 50 -49 107 -67 141 -136 290 -173 372 -17 37 -34 67 -37 67 -3 0
-73 -145 -156 -323z m176 -24 c11 -36 71 -176 106 -251 9 -18 13 -35 11 -38
-3 -2 -66 -3 -141 -2 l-135 3 50 110 c28 61 58 134 67 162 9 29 19 53 23 53 3
0 12 -17 19 -37z"/>
<path d="M1335 1888 c-3 -7 -4 -231 -2 -498 l2 -485 83 -3 82 -3 0 235 0 236
197 2 197 3 -1 65 -1 65 -196 3 -196 2 0 130 0 130 195 0 195 0 1 23 c2 26 2
77 0 95 -1 18 -550 18 -556 0z"/>
<path d="M2050 1835 l0 -65 135 0 135 0 0 -435 0 -435 80 0 80 0 0 435 0 435
135 0 135 0 0 65 0 65 -350 0 -350 0 0 -65z"/>
<path d="M3470 1400 l0 -500 280 0 280 0 0 70 0 70 -194 0 c-146 0 -195 3
-199 13 -2 6 -5 81 -5 165 l-1 152 200 0 199 0 0 70 0 70 -194 0 -194 0 -7 93
c-4 50 -5 108 -3 127 l3 35 198 3 197 2 0 65 0 65 -280 0 -280 0 0 -500z"/>
<path d="M5060 1835 l0 -65 135 0 135 0 0 -435 0 -435 80 0 80 0 0 435 0 435
135 0 135 0 0 65 0 65 -350 0 -350 0 0 -65z"/>
<path d="M6700 1835 l0 -65 135 0 135 0 0 -435 0 -435 80 0 80 0 2 433 3 432
133 3 132 3 0 64 0 65 -350 0 -350 0 0 -65z"/>
<path d="M8530 1400 l0 -500 263 2 262 3 3 68 3 67 -186 0 -185 0 0 430 0 430
-80 0 -80 0 0 -500z"/>
<path d="M1746 556 c-61 -23 -89 -47 -119 -107 -24 -46 -28 -63 -24 -110 11
-127 93 -202 222 -202 84 -1 125 22 125 68 l0 34 -35 -20 c-50 -30 -142 -30
-182 -1 -39 28 -63 79 -63 134 0 123 119 192 238 138 l43 -20 -3 33 c-2 24
-10 35 -33 46 -43 21 -123 24 -169 7z"/>
<path d="M2337 540 c-8 -19 -31 -69 -50 -110 -92 -196 -127 -274 -127 -281 0
-5 13 -9 29 -9 25 0 32 7 55 55 l26 56 86 -3 86 -3 22 -52 c19 -49 24 -53 54
-53 17 0 32 2 32 5 0 4 -79 178 -158 345 l-39 85 -16 -35z m73 -232 c0 -5 -25
-8 -55 -7 -30 1 -55 5 -55 8 0 3 12 36 27 74 l26 68 29 -67 c15 -36 28 -70 28
-76z"/>
<path d="M4542 509 c-16 -35 -59 -128 -96 -207 -36 -78 -66 -147 -66 -153 0
-6 12 -9 28 -7 22 2 32 13 52 55 l25 52 86 1 86 0 19 -41 c10 -23 24 -48 32
-55 17 -18 66 -19 59 -2 -9 24 -190 413 -193 417 -2 2 -17 -25 -32 -60z m83
-188 c6 -18 2 -20 -38 -19 -65 1 -70 7 -51 54 9 21 21 50 26 64 10 24 11 23
33 -27 13 -28 26 -60 30 -72z"/>
<path d="M5822 359 l3 -214 28 -3 27 -3 0 147 0 148 149 -147 c82 -81 151
-147 155 -147 3 0 6 94 6 210 l0 210 -30 0 -29 0 -3 -140 -3 -139 -95 92 c-52
51 -121 117 -153 147 l-57 53 2 -214z"/>
<path d="M6512 371 c-51 -109 -94 -206 -98 -215 -5 -13 1 -16 30 -16 20 0 36
5 36 10 0 6 9 30 21 55 l21 45 85 0 84 0 24 -55 c22 -49 28 -55 55 -55 16 0
30 4 30 8 0 9 -185 410 -192 418 -3 2 -46 -85 -96 -195z m128 1 c20 -45 22
-55 10 -63 -15 -9 -100 -13 -100 -4 0 17 55 134 60 128 3 -5 17 -32 30 -61z"/>
<path d="M7140 558 c-54 -15 -96 -53 -126 -113 -22 -47 -26 -64 -21 -110 3
-30 16 -73 28 -95 54 -95 191 -135 292 -84 21 12 27 22 27 48 l0 33 -42 -20
c-53 -27 -133 -27 -172 -2 -84 55 -87 208 -4 268 40 30 115 34 172 9 l46 -21
0 34 c0 31 -4 34 -47 49 -52 18 -101 19 -153 4z"/>
<path d="M7726 556 c-76 -29 -146 -124 -146 -199 0 -147 144 -255 283 -213
103 31 156 102 157 209 0 60 -16 104 -54 145 -52 59 -165 86 -240 58z m162
-73 c32 -23 72 -97 72 -133 0 -42 -42 -113 -79 -134 -51 -29 -122 -26 -167 9
-123 94 -52 294 99 282 27 -2 61 -13 75 -24z"/>
<path d="M8785 487 c-21 -45 -62 -131 -90 -192 -73 -155 -73 -155 -35 -155 28
0 33 5 55 55 l25 55 85 0 85 0 25 -55 c21 -49 27 -55 54 -55 17 0 31 4 31 9 0
5 -40 95 -90 200 -49 106 -90 196 -90 201 0 5 -4 11 -8 14 -5 3 -26 -32 -47
-77z m74 -115 c12 -30 20 -57 17 -60 -9 -9 -106 -13 -106 -4 0 18 55 131 61
124 3 -4 16 -31 28 -60z"/>
<path d="M321 468 c-24 -51 -65 -140 -92 -197 -27 -57 -49 -110 -49 -117 0 -9
11 -14 29 -14 26 0 32 6 52 55 l23 55 85 0 86 0 25 -53 c24 -51 45 -65 76 -53
12 4 7 21 -24 83 -22 43 -65 135 -97 206 -32 70 -61 127 -64 127 -4 0 -27 -42
-50 -92z m81 -91 c15 -34 23 -66 19 -70 -11 -12 -106 -4 -104 8 5 23 48 125
53 125 3 0 17 -28 32 -63z"/>
<path d="M782 354 l3 -209 28 -3 27 -3 0 96 c0 60 4 95 10 93 5 -1 40 -43 77
-93 58 -77 73 -90 101 -93 17 -2 32 0 32 4 0 4 -29 45 -65 92 -69 89 -75 102
-49 102 8 0 29 14 46 30 28 28 30 35 26 81 -4 38 -12 58 -32 77 -24 25 -35 27
-116 31 l-90 3 2 -208z m156 134 c7 -7 12 -28 12 -48 0 -30 -5 -39 -25 -48
-14 -7 -37 -12 -50 -12 -24 0 -25 3 -25 60 l0 60 38 0 c21 0 43 -5 50 -12z"/>
<path d="M1282 353 l3 -208 33 -3 32 -3 0 210 0 211 -35 0 -35 0 2 -207z"/>
<path d="M3101 503 c18 -32 46 -78 63 -103 29 -41 31 -53 36 -150 l5 -105 33
-3 32 -3 0 100 0 100 63 98 c35 54 67 104 71 111 5 8 -2 12 -26 12 -31 0 -37
-6 -82 -80 -27 -44 -52 -82 -55 -84 -3 -2 -29 34 -56 80 -47 78 -52 83 -83 84
l-33 0 32 -57z"/>
<path d="M3980 349 l0 -210 28 3 27 3 3 93 3 92 37 0 c99 0 142 36 142 117 -1
84 -41 113 -157 113 l-83 0 0 -211z m164 129 c35 -50 9 -88 -60 -88 l-44 0 0
55 0 55 44 0 c35 0 48 -5 60 -22z"/>
<path d="M4990 350 l0 -211 28 3 c27 3 27 3 32 97 l5 95 73 -97 c63 -85 76
-97 102 -97 17 0 30 3 30 6 0 4 -29 46 -65 94 -36 48 -65 90 -65 94 0 3 8 6
18 6 41 1 72 48 72 109 0 31 -7 49 -29 73 -28 32 -33 33 -115 37 l-86 3 0
-212z m150 130 c41 -41 9 -100 -55 -100 l-35 0 0 60 0 60 35 0 c22 0 43 -8 55
-20z"/>
<path d="M5482 353 l3 -208 33 -3 32 -3 0 210 0 211 -35 0 -35 0 2 -207z"/>
<path d="M8210 536 c0 -28 16 -36 71 -36 l39 0 2 -177 3 -178 33 -3 32 -3 0
183 0 183 55 -3 55 -4 0 31 0 31 -145 0 -145 0 0 -24z"/>
</g>
</svg>
